<svg width="546" height="158" viewBox="0 0 546 158" fill="none" xmlns="http://www.w3.org/2000/svg">
<path d="M31.375 131.5C35.7083 131.5 39.5417 130.708 42.875 129.125C46.2083 127.458 48.75 124.958 50.5 121.625V130H68V61.75H49.25V101.625C49.25 105.542 48.0833 108.708 45.75 111.125C43.4167 113.458 40.4167 114.625 36.75 114.625C33.0833 114.625 30.0833 113.458 27.75 111.125C25.4167 108.708 24.25 105.542 24.25 101.625V61.75H5.5V103.125C5.5 111.625 7.70833 118.5 12.125 123.75C16.625 128.917 23.0417 131.5 31.375 131.5ZM85.4541 155H104.204V124.75C106.621 127 109.496 128.708 112.829 129.875C116.246 130.958 119.871 131.5 123.704 131.5C130.371 131.5 136.329 129.917 141.579 126.75C146.829 123.583 150.954 119.292 153.954 113.875C157.037 108.458 158.579 102.458 158.579 95.875C158.579 89.2083 157.037 83.2083 153.954 77.875C150.871 72.4583 146.704 68.1667 141.454 65C136.204 61.8333 130.329 60.25 123.829 60.25C114.746 60.25 107.787 63.125 102.954 68.875V61.75H85.4541V155ZM121.454 114.625C116.371 114.625 112.204 112.917 108.954 109.5C105.787 106 104.204 101.458 104.204 95.875C104.204 90.375 105.787 85.875 108.954 82.375C112.204 78.875 116.371 77.125 121.454 77.125C126.621 77.125 130.871 78.9167 134.204 82.5C137.537 86 139.204 90.4583 139.204 95.875C139.204 101.375 137.537 105.875 134.204 109.375C130.871 112.875 126.621 114.625 121.454 114.625ZM200.061 131.5C207.977 131.5 214.352 129.542 219.186 125.625C224.019 121.708 226.436 116.583 226.436 110.25C226.436 105.333 224.936 101.208 221.936 97.875C218.936 94.4583 214.602 91.9167 208.936 90.25L198.061 87C193.144 85.5833 190.686 83.5417 190.686 80.875C190.686 79.125 191.352 77.75 192.686 76.75C194.102 75.75 196.019 75.25 198.436 75.25C201.769 75.25 204.727 76.125 207.311 77.875C209.977 79.5417 211.811 81.7917 212.811 84.625L226.686 78.125C224.602 72.4583 221.019 68.0833 215.936 65C210.936 61.8333 205.102 60.25 198.436 60.25C193.352 60.25 188.852 61.1667 184.936 63C181.019 64.75 177.977 67.2083 175.811 70.375C173.644 73.5417 172.561 77.25 172.561 81.5C172.561 86.3333 174.061 90.5417 177.061 94.125C180.061 97.625 184.352 100.167 189.936 101.75L201.561 105C206.061 106.25 208.311 108.25 208.311 111C208.311 115.083 205.561 117.125 200.061 117.125C196.394 117.125 193.061 116.083 190.061 114C187.061 111.917 184.686 109.042 182.936 105.375L169.186 111.875C171.186 117.875 174.936 122.667 180.436 126.25C186.019 129.75 192.561 131.5 200.061 131.5ZM275.267 131.5C282.017 131.5 288.142 129.958 293.642 126.875C299.142 123.792 303.517 119.583 306.767 114.25C310.1 108.833 311.767 102.708 311.767 95.875C311.767 88.9583 310.1 82.8333 306.767 77.5C303.517 72.1667 299.142 67.9583 293.642 64.875C288.142 61.7917 282.017 60.25 275.267 60.25C268.517 60.25 262.35 61.7917 256.767 64.875C251.267 67.9583 246.85 72.1667 243.517 77.5C240.267 82.8333 238.642 88.9583 238.642 95.875C238.642 102.708 240.267 108.833 243.517 114.25C246.85 119.583 251.267 123.792 256.767 126.875C262.35 129.958 268.517 131.5 275.267 131.5ZM275.267 114.625C270.183 114.625 266.017 112.875 262.767 109.375C259.6 105.875 258.017 101.375 258.017 95.875C258.017 90.4583 259.6 86 262.767 82.5C266.017 78.9167 270.183 77.125 275.267 77.125C280.35 77.125 284.475 78.9167 287.642 82.5C290.808 86 292.392 90.4583 292.392 95.875C292.392 101.375 290.808 105.875 287.642 109.375C284.475 112.875 280.35 114.625 275.267 114.625ZM360.063 131.5C365.229 131.5 369.979 130.625 374.313 128.875C378.646 127.042 382.354 124.542 385.438 121.375C388.521 118.208 390.688 114.625 391.938 110.625L375.688 103.5C374.521 106.917 372.563 109.625 369.813 111.625C367.063 113.625 363.813 114.625 360.063 114.625C355.146 114.625 351.104 112.875 347.938 109.375C344.771 105.875 343.188 101.375 343.188 95.875C343.188 90.375 344.771 85.875 347.938 82.375C351.104 78.875 355.146 77.125 360.063 77.125C363.729 77.125 366.938 78.125 369.688 80.125C372.521 82.125 374.521 84.8333 375.688 88.25L391.938 81.25C390.604 77 388.396 73.3333 385.313 70.25C382.229 67.0833 378.521 64.625 374.188 62.875C369.854 61.125 365.146 60.25 360.063 60.25C353.229 60.25 347.063 61.7917 341.563 64.875C336.063 67.9583 331.729 72.2083 328.563 77.625C325.396 82.9583 323.812 89 323.812 95.75C323.812 102.5 325.396 108.583 328.563 114C331.813 119.417 336.146 123.708 341.563 126.875C347.063 129.958 353.229 131.5 360.063 131.5ZM406.729 55.625H425.479V36.875H406.729V55.625ZM406.729 130H425.479V61.75H406.729V130ZM464.074 131.5C472.574 131.5 479.408 128.875 484.574 123.625V130H502.074V85C502.074 80.0833 500.824 75.7917 498.324 72.125C495.908 68.375 492.491 65.4583 488.074 63.375C483.658 61.2917 478.574 60.25 472.824 60.25C465.574 60.25 459.199 61.9167 453.699 65.25C448.283 68.5833 444.574 73.0833 442.574 78.75L457.574 85.875C458.741 82.875 460.574 80.4583 463.074 78.625C465.658 76.7917 468.616 75.875 471.949 75.875C475.449 75.875 478.199 76.75 480.199 78.5C482.283 80.25 483.324 82.4167 483.324 85V86.875L464.449 89.875C456.283 91.2083 450.199 93.75 446.199 97.5C442.199 101.25 440.199 106 440.199 111.75C440.199 117.917 442.324 122.75 446.574 126.25C450.908 129.75 456.741 131.5 464.074 131.5ZM459.574 111.125C459.574 108.875 460.283 107.167 461.699 106C463.116 104.75 465.158 103.875 467.824 103.375L483.324 100.625V102.75C483.324 106.917 481.908 110.458 479.074 113.375C476.241 116.292 472.491 117.75 467.824 117.75C465.491 117.75 463.533 117.167 461.949 116C460.366 114.833 459.574 113.208 459.574 111.125ZM519.575 130H538.325V35.375H519.575V130Z" fill="#A99BAA"/>
<path d="M273.744 6L304.488 59.25L273.744 41.5L243 59.25L273.744 6Z" fill="#A99BAA"/>
</svg>
